M48
; DRILL file {KiCad 9.0.2+dfsg-1} date 2026-03-20T18:51:26-0500
; FORMAT={-:-/ absolute / metric / decimal}
; #@! TF.CreationDate,2026-03-20T18:51:26-05:00
; #@! TF.GenerationSoftware,Kicad,Pcbnew,9.0.2+dfsg-1
; #@! TF.FileFunction,Plated,1,2,PTH
FMAT,2
METRIC
; #@! TA.AperFunction,Plated,PTH,ViaDrill
T1C0.300
; #@! TA.AperFunction,Plated,PTH,ComponentDrill
T2C0.750
; #@! TA.AperFunction,Plated,PTH,ComponentDrill
T3C0.800
; #@! TA.AperFunction,Plated,PTH,ComponentDrill
T4C0.840
; #@! TA.AperFunction,Plated,PTH,ComponentDrill
T5C1.100
; #@! TA.AperFunction,Plated,PTH,ComponentDrill
T6C1.270
; #@! TA.AperFunction,Plated,PTH,ComponentDrill
T7C1.600
%
G90
G05
T1
X113.86Y-92.75
X117.61Y-89.56
X122.55Y-64.28
X122.64Y-91.19
X123.02Y-93.59
X135.84Y-81.76
X144.71Y-44.47
X146.77Y-70.75
X148.43Y-42.49
X155.14Y-53.77
X159.5Y-55.36
X161.08Y-62.39
X176.36Y-65.65
X182.01Y-71.69
T2
X122.72Y-78.21
X123.99Y-78.21
X125.26Y-78.21
T3
X121.39Y-71.45
X125.39Y-71.45
X125.7Y-34.33
X125.7Y-50.33
X130.17Y-85.39
X130.17Y-95.55
X135.2Y-34.33
X135.2Y-50.33
X138.35Y-101.76
X138.36Y-40.91
X142.36Y-40.91
X148.3Y-35.51
X148.3Y-44.51
X150.3Y-49.51
X156.8Y-49.51
X158.8Y-35.51
X158.8Y-44.51
X163.31Y-41.82
X163.31Y-46.82
T4
X134.23Y-79.86
X134.23Y-82.4
X134.23Y-84.94
X134.23Y-87.48
X134.23Y-90.02
X134.23Y-92.56
X134.23Y-95.1
X134.23Y-97.64
X149.47Y-79.86
X149.47Y-82.4
X149.47Y-84.94
X149.47Y-87.48
X149.47Y-90.02
X149.47Y-92.56
X149.47Y-95.1
X149.47Y-97.64
T5
X113.62Y-97.36
X123.78Y-97.36
T6
X131.79Y-74.12
X134.33Y-74.12
X136.87Y-74.12
X139.41Y-74.12
X141.95Y-74.12
X144.49Y-74.12
X147.03Y-74.12
X149.57Y-74.12
T7
X122.36Y-55.8
X137.6Y-55.8
M30
