%TF.GenerationSoftware,KiCad,Pcbnew,9.0.2+dfsg-1*%
%TF.CreationDate,2026-03-20T18:51:17-05:00*%
%TF.ProjectId,Project,50726f6a-6563-4742-9e6b-696361645f70,rev?*%
%TF.SameCoordinates,Original*%
%TF.FileFunction,Legend,Bot*%
%TF.FilePolarity,Positive*%
%FSLAX46Y46*%
G04 Gerber Fmt 4.6, Leading zero omitted, Abs format (unit mm)*
G04 Created by KiCad (PCBNEW 9.0.2+dfsg-1) date 2026-03-20 18:51:17*
%MOMM*%
%LPD*%
G01*
G04 APERTURE LIST*
%ADD10C,0.100000*%
%ADD11C,0.150000*%
%ADD12C,0.300000*%
%ADD13C,0.400000*%
%ADD14C,0.120000*%
%ADD15C,0.127000*%
G04 APERTURE END LIST*
D10*
D11*
X177002200Y-166007200D02*
X285002200Y-166007200D01*
X285002200Y-198007200D01*
X177002200Y-198007200D01*
X177002200Y-166007200D01*
D10*
D11*
X10000000Y-10000000D02*
X287002200Y-10000000D01*
X287002200Y-200007200D01*
X10000000Y-200007200D01*
X10000000Y-10000000D01*
D10*
D11*
X12000000Y-12000000D02*
X285002200Y-12000000D01*
X285002200Y-198007200D01*
X12000000Y-198007200D01*
X12000000Y-12000000D01*
D10*
D11*
X60000000Y-12000000D02*
X60000000Y-10000000D01*
D10*
D11*
X110000000Y-12000000D02*
X110000000Y-10000000D01*
D10*
D11*
X160000000Y-12000000D02*
X160000000Y-10000000D01*
D10*
D11*
X210000000Y-12000000D02*
X210000000Y-10000000D01*
D10*
D11*
X260000000Y-12000000D02*
X260000000Y-10000000D01*
D10*
D11*
X36089160Y-11593604D02*
X35346303Y-11593604D01*
X35717731Y-11593604D02*
X35717731Y-10293604D01*
X35717731Y-10293604D02*
X35593922Y-10479319D01*
X35593922Y-10479319D02*
X35470112Y-10603128D01*
X35470112Y-10603128D02*
X35346303Y-10665033D01*
D10*
D11*
X85346303Y-10417414D02*
X85408207Y-10355509D01*
X85408207Y-10355509D02*
X85532017Y-10293604D01*
X85532017Y-10293604D02*
X85841541Y-10293604D01*
X85841541Y-10293604D02*
X85965350Y-10355509D01*
X85965350Y-10355509D02*
X86027255Y-10417414D01*
X86027255Y-10417414D02*
X86089160Y-10541223D01*
X86089160Y-10541223D02*
X86089160Y-10665033D01*
X86089160Y-10665033D02*
X86027255Y-10850747D01*
X86027255Y-10850747D02*
X85284398Y-11593604D01*
X85284398Y-11593604D02*
X86089160Y-11593604D01*
D10*
D11*
X135284398Y-10293604D02*
X136089160Y-10293604D01*
X136089160Y-10293604D02*
X135655826Y-10788842D01*
X135655826Y-10788842D02*
X135841541Y-10788842D01*
X135841541Y-10788842D02*
X135965350Y-10850747D01*
X135965350Y-10850747D02*
X136027255Y-10912652D01*
X136027255Y-10912652D02*
X136089160Y-11036461D01*
X136089160Y-11036461D02*
X136089160Y-11345985D01*
X136089160Y-11345985D02*
X136027255Y-11469795D01*
X136027255Y-11469795D02*
X135965350Y-11531700D01*
X135965350Y-11531700D02*
X135841541Y-11593604D01*
X135841541Y-11593604D02*
X135470112Y-11593604D01*
X135470112Y-11593604D02*
X135346303Y-11531700D01*
X135346303Y-11531700D02*
X135284398Y-11469795D01*
D10*
D11*
X185965350Y-10726938D02*
X185965350Y-11593604D01*
X185655826Y-10231700D02*
X185346303Y-11160271D01*
X185346303Y-11160271D02*
X186151064Y-11160271D01*
D10*
D11*
X236027255Y-10293604D02*
X235408207Y-10293604D01*
X235408207Y-10293604D02*
X235346303Y-10912652D01*
X235346303Y-10912652D02*
X235408207Y-10850747D01*
X235408207Y-10850747D02*
X235532017Y-10788842D01*
X235532017Y-10788842D02*
X235841541Y-10788842D01*
X235841541Y-10788842D02*
X235965350Y-10850747D01*
X235965350Y-10850747D02*
X236027255Y-10912652D01*
X236027255Y-10912652D02*
X236089160Y-11036461D01*
X236089160Y-11036461D02*
X236089160Y-11345985D01*
X236089160Y-11345985D02*
X236027255Y-11469795D01*
X236027255Y-11469795D02*
X235965350Y-11531700D01*
X235965350Y-11531700D02*
X235841541Y-11593604D01*
X235841541Y-11593604D02*
X235532017Y-11593604D01*
X235532017Y-11593604D02*
X235408207Y-11531700D01*
X235408207Y-11531700D02*
X235346303Y-11469795D01*
D10*
D11*
X285965350Y-10293604D02*
X285717731Y-10293604D01*
X285717731Y-10293604D02*
X285593922Y-10355509D01*
X285593922Y-10355509D02*
X285532017Y-10417414D01*
X285532017Y-10417414D02*
X285408207Y-10603128D01*
X285408207Y-10603128D02*
X285346303Y-10850747D01*
X285346303Y-10850747D02*
X285346303Y-11345985D01*
X285346303Y-11345985D02*
X285408207Y-11469795D01*
X285408207Y-11469795D02*
X285470112Y-11531700D01*
X285470112Y-11531700D02*
X285593922Y-11593604D01*
X285593922Y-11593604D02*
X285841541Y-11593604D01*
X285841541Y-11593604D02*
X285965350Y-11531700D01*
X285965350Y-11531700D02*
X286027255Y-11469795D01*
X286027255Y-11469795D02*
X286089160Y-11345985D01*
X286089160Y-11345985D02*
X286089160Y-11036461D01*
X286089160Y-11036461D02*
X286027255Y-10912652D01*
X286027255Y-10912652D02*
X285965350Y-10850747D01*
X285965350Y-10850747D02*
X285841541Y-10788842D01*
X285841541Y-10788842D02*
X285593922Y-10788842D01*
X285593922Y-10788842D02*
X285470112Y-10850747D01*
X285470112Y-10850747D02*
X285408207Y-10912652D01*
X285408207Y-10912652D02*
X285346303Y-11036461D01*
D10*
D11*
X60000000Y-198007200D02*
X60000000Y-200007200D01*
D10*
D11*
X110000000Y-198007200D02*
X110000000Y-200007200D01*
D10*
D11*
X160000000Y-198007200D02*
X160000000Y-200007200D01*
D10*
D11*
X210000000Y-198007200D02*
X210000000Y-200007200D01*
D10*
D11*
X260000000Y-198007200D02*
X260000000Y-200007200D01*
D10*
D11*
X36089160Y-199600804D02*
X35346303Y-199600804D01*
X35717731Y-199600804D02*
X35717731Y-198300804D01*
X35717731Y-198300804D02*
X35593922Y-198486519D01*
X35593922Y-198486519D02*
X35470112Y-198610328D01*
X35470112Y-198610328D02*
X35346303Y-198672233D01*
D10*
D11*
X85346303Y-198424614D02*
X85408207Y-198362709D01*
X85408207Y-198362709D02*
X85532017Y-198300804D01*
X85532017Y-198300804D02*
X85841541Y-198300804D01*
X85841541Y-198300804D02*
X85965350Y-198362709D01*
X85965350Y-198362709D02*
X86027255Y-198424614D01*
X86027255Y-198424614D02*
X86089160Y-198548423D01*
X86089160Y-198548423D02*
X86089160Y-198672233D01*
X86089160Y-198672233D02*
X86027255Y-198857947D01*
X86027255Y-198857947D02*
X85284398Y-199600804D01*
X85284398Y-199600804D02*
X86089160Y-199600804D01*
D10*
D11*
X135284398Y-198300804D02*
X136089160Y-198300804D01*
X136089160Y-198300804D02*
X135655826Y-198796042D01*
X135655826Y-198796042D02*
X135841541Y-198796042D01*
X135841541Y-198796042D02*
X135965350Y-198857947D01*
X135965350Y-198857947D02*
X136027255Y-198919852D01*
X136027255Y-198919852D02*
X136089160Y-199043661D01*
X136089160Y-199043661D02*
X136089160Y-199353185D01*
X136089160Y-199353185D02*
X136027255Y-199476995D01*
X136027255Y-199476995D02*
X135965350Y-199538900D01*
X135965350Y-199538900D02*
X135841541Y-199600804D01*
X135841541Y-199600804D02*
X135470112Y-199600804D01*
X135470112Y-199600804D02*
X135346303Y-199538900D01*
X135346303Y-199538900D02*
X135284398Y-199476995D01*
D10*
D11*
X185965350Y-198734138D02*
X185965350Y-199600804D01*
X185655826Y-198238900D02*
X185346303Y-199167471D01*
X185346303Y-199167471D02*
X186151064Y-199167471D01*
D10*
D11*
X236027255Y-198300804D02*
X235408207Y-198300804D01*
X235408207Y-198300804D02*
X235346303Y-198919852D01*
X235346303Y-198919852D02*
X235408207Y-198857947D01*
X235408207Y-198857947D02*
X235532017Y-198796042D01*
X235532017Y-198796042D02*
X235841541Y-198796042D01*
X235841541Y-198796042D02*
X235965350Y-198857947D01*
X235965350Y-198857947D02*
X236027255Y-198919852D01*
X236027255Y-198919852D02*
X236089160Y-199043661D01*
X236089160Y-199043661D02*
X236089160Y-199353185D01*
X236089160Y-199353185D02*
X236027255Y-199476995D01*
X236027255Y-199476995D02*
X235965350Y-199538900D01*
X235965350Y-199538900D02*
X235841541Y-199600804D01*
X235841541Y-199600804D02*
X235532017Y-199600804D01*
X235532017Y-199600804D02*
X235408207Y-199538900D01*
X235408207Y-199538900D02*
X235346303Y-199476995D01*
D10*
D11*
X285965350Y-198300804D02*
X285717731Y-198300804D01*
X285717731Y-198300804D02*
X285593922Y-198362709D01*
X285593922Y-198362709D02*
X285532017Y-198424614D01*
X285532017Y-198424614D02*
X285408207Y-198610328D01*
X285408207Y-198610328D02*
X285346303Y-198857947D01*
X285346303Y-198857947D02*
X285346303Y-199353185D01*
X285346303Y-199353185D02*
X285408207Y-199476995D01*
X285408207Y-199476995D02*
X285470112Y-199538900D01*
X285470112Y-199538900D02*
X285593922Y-199600804D01*
X285593922Y-199600804D02*
X285841541Y-199600804D01*
X285841541Y-199600804D02*
X285965350Y-199538900D01*
X285965350Y-199538900D02*
X286027255Y-199476995D01*
X286027255Y-199476995D02*
X286089160Y-199353185D01*
X286089160Y-199353185D02*
X286089160Y-199043661D01*
X286089160Y-199043661D02*
X286027255Y-198919852D01*
X286027255Y-198919852D02*
X285965350Y-198857947D01*
X285965350Y-198857947D02*
X285841541Y-198796042D01*
X285841541Y-198796042D02*
X285593922Y-198796042D01*
X285593922Y-198796042D02*
X285470112Y-198857947D01*
X285470112Y-198857947D02*
X285408207Y-198919852D01*
X285408207Y-198919852D02*
X285346303Y-199043661D01*
D10*
D11*
X10000000Y-60000000D02*
X12000000Y-60000000D01*
D10*
D11*
X10000000Y-110000000D02*
X12000000Y-110000000D01*
D10*
D11*
X10000000Y-160000000D02*
X12000000Y-160000000D01*
D10*
D11*
X10690476Y-35222176D02*
X11309523Y-35222176D01*
X10566666Y-35593604D02*
X10999999Y-34293604D01*
X10999999Y-34293604D02*
X11433333Y-35593604D01*
D10*
D11*
X11092857Y-84912652D02*
X11278571Y-84974557D01*
X11278571Y-84974557D02*
X11340476Y-85036461D01*
X11340476Y-85036461D02*
X11402380Y-85160271D01*
X11402380Y-85160271D02*
X11402380Y-85345985D01*
X11402380Y-85345985D02*
X11340476Y-85469795D01*
X11340476Y-85469795D02*
X11278571Y-85531700D01*
X11278571Y-85531700D02*
X11154761Y-85593604D01*
X11154761Y-85593604D02*
X10659523Y-85593604D01*
X10659523Y-85593604D02*
X10659523Y-84293604D01*
X10659523Y-84293604D02*
X11092857Y-84293604D01*
X11092857Y-84293604D02*
X11216666Y-84355509D01*
X11216666Y-84355509D02*
X11278571Y-84417414D01*
X11278571Y-84417414D02*
X11340476Y-84541223D01*
X11340476Y-84541223D02*
X11340476Y-84665033D01*
X11340476Y-84665033D02*
X11278571Y-84788842D01*
X11278571Y-84788842D02*
X11216666Y-84850747D01*
X11216666Y-84850747D02*
X11092857Y-84912652D01*
X11092857Y-84912652D02*
X10659523Y-84912652D01*
D10*
D11*
X11402380Y-135469795D02*
X11340476Y-135531700D01*
X11340476Y-135531700D02*
X11154761Y-135593604D01*
X11154761Y-135593604D02*
X11030952Y-135593604D01*
X11030952Y-135593604D02*
X10845238Y-135531700D01*
X10845238Y-135531700D02*
X10721428Y-135407890D01*
X10721428Y-135407890D02*
X10659523Y-135284080D01*
X10659523Y-135284080D02*
X10597619Y-135036461D01*
X10597619Y-135036461D02*
X10597619Y-134850747D01*
X10597619Y-134850747D02*
X10659523Y-134603128D01*
X10659523Y-134603128D02*
X10721428Y-134479319D01*
X10721428Y-134479319D02*
X10845238Y-134355509D01*
X10845238Y-134355509D02*
X11030952Y-134293604D01*
X11030952Y-134293604D02*
X11154761Y-134293604D01*
X11154761Y-134293604D02*
X11340476Y-134355509D01*
X11340476Y-134355509D02*
X11402380Y-134417414D01*
D10*
D11*
X10659523Y-185593604D02*
X10659523Y-184293604D01*
X10659523Y-184293604D02*
X10969047Y-184293604D01*
X10969047Y-184293604D02*
X11154761Y-184355509D01*
X11154761Y-184355509D02*
X11278571Y-184479319D01*
X11278571Y-184479319D02*
X11340476Y-184603128D01*
X11340476Y-184603128D02*
X11402380Y-184850747D01*
X11402380Y-184850747D02*
X11402380Y-185036461D01*
X11402380Y-185036461D02*
X11340476Y-185284080D01*
X11340476Y-185284080D02*
X11278571Y-185407890D01*
X11278571Y-185407890D02*
X11154761Y-185531700D01*
X11154761Y-185531700D02*
X10969047Y-185593604D01*
X10969047Y-185593604D02*
X10659523Y-185593604D01*
D10*
D11*
X287002200Y-60000000D02*
X285002200Y-60000000D01*
D10*
D11*
X287002200Y-110000000D02*
X285002200Y-110000000D01*
D10*
D11*
X287002200Y-160000000D02*
X285002200Y-160000000D01*
D10*
D11*
X285692676Y-35222176D02*
X286311723Y-35222176D01*
X285568866Y-35593604D02*
X286002199Y-34293604D01*
X286002199Y-34293604D02*
X286435533Y-35593604D01*
D10*
D11*
X286095057Y-84912652D02*
X286280771Y-84974557D01*
X286280771Y-84974557D02*
X286342676Y-85036461D01*
X286342676Y-85036461D02*
X286404580Y-85160271D01*
X286404580Y-85160271D02*
X286404580Y-85345985D01*
X286404580Y-85345985D02*
X286342676Y-85469795D01*
X286342676Y-85469795D02*
X286280771Y-85531700D01*
X286280771Y-85531700D02*
X286156961Y-85593604D01*
X286156961Y-85593604D02*
X285661723Y-85593604D01*
X285661723Y-85593604D02*
X285661723Y-84293604D01*
X285661723Y-84293604D02*
X286095057Y-84293604D01*
X286095057Y-84293604D02*
X286218866Y-84355509D01*
X286218866Y-84355509D02*
X286280771Y-84417414D01*
X286280771Y-84417414D02*
X286342676Y-84541223D01*
X286342676Y-84541223D02*
X286342676Y-84665033D01*
X286342676Y-84665033D02*
X286280771Y-84788842D01*
X286280771Y-84788842D02*
X286218866Y-84850747D01*
X286218866Y-84850747D02*
X286095057Y-84912652D01*
X286095057Y-84912652D02*
X285661723Y-84912652D01*
D10*
D11*
X286404580Y-135469795D02*
X286342676Y-135531700D01*
X286342676Y-135531700D02*
X286156961Y-135593604D01*
X286156961Y-135593604D02*
X286033152Y-135593604D01*
X286033152Y-135593604D02*
X285847438Y-135531700D01*
X285847438Y-135531700D02*
X285723628Y-135407890D01*
X285723628Y-135407890D02*
X285661723Y-135284080D01*
X285661723Y-135284080D02*
X285599819Y-135036461D01*
X285599819Y-135036461D02*
X285599819Y-134850747D01*
X285599819Y-134850747D02*
X285661723Y-134603128D01*
X285661723Y-134603128D02*
X285723628Y-134479319D01*
X285723628Y-134479319D02*
X285847438Y-134355509D01*
X285847438Y-134355509D02*
X286033152Y-134293604D01*
X286033152Y-134293604D02*
X286156961Y-134293604D01*
X286156961Y-134293604D02*
X286342676Y-134355509D01*
X286342676Y-134355509D02*
X286404580Y-134417414D01*
D10*
D11*
X285661723Y-185593604D02*
X285661723Y-184293604D01*
X285661723Y-184293604D02*
X285971247Y-184293604D01*
X285971247Y-184293604D02*
X286156961Y-184355509D01*
X286156961Y-184355509D02*
X286280771Y-184479319D01*
X286280771Y-184479319D02*
X286342676Y-184603128D01*
X286342676Y-184603128D02*
X286404580Y-184850747D01*
X286404580Y-184850747D02*
X286404580Y-185036461D01*
X286404580Y-185036461D02*
X286342676Y-185284080D01*
X286342676Y-185284080D02*
X286280771Y-185407890D01*
X286280771Y-185407890D02*
X286156961Y-185531700D01*
X286156961Y-185531700D02*
X285971247Y-185593604D01*
X285971247Y-185593604D02*
X285661723Y-185593604D01*
D10*
D11*
X200458026Y-193793328D02*
X200458026Y-192293328D01*
X200458026Y-192293328D02*
X200815169Y-192293328D01*
X200815169Y-192293328D02*
X201029455Y-192364757D01*
X201029455Y-192364757D02*
X201172312Y-192507614D01*
X201172312Y-192507614D02*
X201243741Y-192650471D01*
X201243741Y-192650471D02*
X201315169Y-192936185D01*
X201315169Y-192936185D02*
X201315169Y-193150471D01*
X201315169Y-193150471D02*
X201243741Y-193436185D01*
X201243741Y-193436185D02*
X201172312Y-193579042D01*
X201172312Y-193579042D02*
X201029455Y-193721900D01*
X201029455Y-193721900D02*
X200815169Y-193793328D01*
X200815169Y-193793328D02*
X200458026Y-193793328D01*
X202600884Y-193793328D02*
X202600884Y-193007614D01*
X202600884Y-193007614D02*
X202529455Y-192864757D01*
X202529455Y-192864757D02*
X202386598Y-192793328D01*
X202386598Y-192793328D02*
X202100884Y-192793328D01*
X202100884Y-192793328D02*
X201958026Y-192864757D01*
X202600884Y-193721900D02*
X202458026Y-193793328D01*
X202458026Y-193793328D02*
X202100884Y-193793328D01*
X202100884Y-193793328D02*
X201958026Y-193721900D01*
X201958026Y-193721900D02*
X201886598Y-193579042D01*
X201886598Y-193579042D02*
X201886598Y-193436185D01*
X201886598Y-193436185D02*
X201958026Y-193293328D01*
X201958026Y-193293328D02*
X202100884Y-193221900D01*
X202100884Y-193221900D02*
X202458026Y-193221900D01*
X202458026Y-193221900D02*
X202600884Y-193150471D01*
X203100884Y-192793328D02*
X203672312Y-192793328D01*
X203315169Y-192293328D02*
X203315169Y-193579042D01*
X203315169Y-193579042D02*
X203386598Y-193721900D01*
X203386598Y-193721900D02*
X203529455Y-193793328D01*
X203529455Y-193793328D02*
X203672312Y-193793328D01*
X204743741Y-193721900D02*
X204600884Y-193793328D01*
X204600884Y-193793328D02*
X204315170Y-193793328D01*
X204315170Y-193793328D02*
X204172312Y-193721900D01*
X204172312Y-193721900D02*
X204100884Y-193579042D01*
X204100884Y-193579042D02*
X204100884Y-193007614D01*
X204100884Y-193007614D02*
X204172312Y-192864757D01*
X204172312Y-192864757D02*
X204315170Y-192793328D01*
X204315170Y-192793328D02*
X204600884Y-192793328D01*
X204600884Y-192793328D02*
X204743741Y-192864757D01*
X204743741Y-192864757D02*
X204815170Y-193007614D01*
X204815170Y-193007614D02*
X204815170Y-193150471D01*
X204815170Y-193150471D02*
X204100884Y-193293328D01*
X205458026Y-193650471D02*
X205529455Y-193721900D01*
X205529455Y-193721900D02*
X205458026Y-193793328D01*
X205458026Y-193793328D02*
X205386598Y-193721900D01*
X205386598Y-193721900D02*
X205458026Y-193650471D01*
X205458026Y-193650471D02*
X205458026Y-193793328D01*
X205458026Y-192864757D02*
X205529455Y-192936185D01*
X205529455Y-192936185D02*
X205458026Y-193007614D01*
X205458026Y-193007614D02*
X205386598Y-192936185D01*
X205386598Y-192936185D02*
X205458026Y-192864757D01*
X205458026Y-192864757D02*
X205458026Y-193007614D01*
D10*
D11*
X177002200Y-194507200D02*
X285002200Y-194507200D01*
D10*
D11*
X178458026Y-196593328D02*
X178458026Y-195093328D01*
X179315169Y-196593328D02*
X178672312Y-195736185D01*
X179315169Y-195093328D02*
X178458026Y-195950471D01*
X179958026Y-196593328D02*
X179958026Y-195593328D01*
X179958026Y-195093328D02*
X179886598Y-195164757D01*
X179886598Y-195164757D02*
X179958026Y-195236185D01*
X179958026Y-195236185D02*
X180029455Y-195164757D01*
X180029455Y-195164757D02*
X179958026Y-195093328D01*
X179958026Y-195093328D02*
X179958026Y-195236185D01*
X181529455Y-196450471D02*
X181458027Y-196521900D01*
X181458027Y-196521900D02*
X181243741Y-196593328D01*
X181243741Y-196593328D02*
X181100884Y-196593328D01*
X181100884Y-196593328D02*
X180886598Y-196521900D01*
X180886598Y-196521900D02*
X180743741Y-196379042D01*
X180743741Y-196379042D02*
X180672312Y-196236185D01*
X180672312Y-196236185D02*
X180600884Y-195950471D01*
X180600884Y-195950471D02*
X180600884Y-195736185D01*
X180600884Y-195736185D02*
X180672312Y-195450471D01*
X180672312Y-195450471D02*
X180743741Y-195307614D01*
X180743741Y-195307614D02*
X180886598Y-195164757D01*
X180886598Y-195164757D02*
X181100884Y-195093328D01*
X181100884Y-195093328D02*
X181243741Y-195093328D01*
X181243741Y-195093328D02*
X181458027Y-195164757D01*
X181458027Y-195164757D02*
X181529455Y-195236185D01*
X182815170Y-196593328D02*
X182815170Y-195807614D01*
X182815170Y-195807614D02*
X182743741Y-195664757D01*
X182743741Y-195664757D02*
X182600884Y-195593328D01*
X182600884Y-195593328D02*
X182315170Y-195593328D01*
X182315170Y-195593328D02*
X182172312Y-195664757D01*
X182815170Y-196521900D02*
X182672312Y-196593328D01*
X182672312Y-196593328D02*
X182315170Y-196593328D01*
X182315170Y-196593328D02*
X182172312Y-196521900D01*
X182172312Y-196521900D02*
X182100884Y-196379042D01*
X182100884Y-196379042D02*
X182100884Y-196236185D01*
X182100884Y-196236185D02*
X182172312Y-196093328D01*
X182172312Y-196093328D02*
X182315170Y-196021900D01*
X182315170Y-196021900D02*
X182672312Y-196021900D01*
X182672312Y-196021900D02*
X182815170Y-195950471D01*
X184172313Y-196593328D02*
X184172313Y-195093328D01*
X184172313Y-196521900D02*
X184029455Y-196593328D01*
X184029455Y-196593328D02*
X183743741Y-196593328D01*
X183743741Y-196593328D02*
X183600884Y-196521900D01*
X183600884Y-196521900D02*
X183529455Y-196450471D01*
X183529455Y-196450471D02*
X183458027Y-196307614D01*
X183458027Y-196307614D02*
X183458027Y-195879042D01*
X183458027Y-195879042D02*
X183529455Y-195736185D01*
X183529455Y-195736185D02*
X183600884Y-195664757D01*
X183600884Y-195664757D02*
X183743741Y-195593328D01*
X183743741Y-195593328D02*
X184029455Y-195593328D01*
X184029455Y-195593328D02*
X184172313Y-195664757D01*
X186029455Y-195807614D02*
X186529455Y-195807614D01*
X186743741Y-196593328D02*
X186029455Y-196593328D01*
X186029455Y-196593328D02*
X186029455Y-195093328D01*
X186029455Y-195093328D02*
X186743741Y-195093328D01*
X187386598Y-196450471D02*
X187458027Y-196521900D01*
X187458027Y-196521900D02*
X187386598Y-196593328D01*
X187386598Y-196593328D02*
X187315170Y-196521900D01*
X187315170Y-196521900D02*
X187386598Y-196450471D01*
X187386598Y-196450471D02*
X187386598Y-196593328D01*
X188100884Y-196593328D02*
X188100884Y-195093328D01*
X188100884Y-195093328D02*
X188458027Y-195093328D01*
X188458027Y-195093328D02*
X188672313Y-195164757D01*
X188672313Y-195164757D02*
X188815170Y-195307614D01*
X188815170Y-195307614D02*
X188886599Y-195450471D01*
X188886599Y-195450471D02*
X188958027Y-195736185D01*
X188958027Y-195736185D02*
X188958027Y-195950471D01*
X188958027Y-195950471D02*
X188886599Y-196236185D01*
X188886599Y-196236185D02*
X188815170Y-196379042D01*
X188815170Y-196379042D02*
X188672313Y-196521900D01*
X188672313Y-196521900D02*
X188458027Y-196593328D01*
X188458027Y-196593328D02*
X188100884Y-196593328D01*
X189600884Y-196450471D02*
X189672313Y-196521900D01*
X189672313Y-196521900D02*
X189600884Y-196593328D01*
X189600884Y-196593328D02*
X189529456Y-196521900D01*
X189529456Y-196521900D02*
X189600884Y-196450471D01*
X189600884Y-196450471D02*
X189600884Y-196593328D01*
X190243742Y-196164757D02*
X190958028Y-196164757D01*
X190100885Y-196593328D02*
X190600885Y-195093328D01*
X190600885Y-195093328D02*
X191100885Y-196593328D01*
X191600884Y-196450471D02*
X191672313Y-196521900D01*
X191672313Y-196521900D02*
X191600884Y-196593328D01*
X191600884Y-196593328D02*
X191529456Y-196521900D01*
X191529456Y-196521900D02*
X191600884Y-196450471D01*
X191600884Y-196450471D02*
X191600884Y-196593328D01*
X193529456Y-196593328D02*
X193815170Y-196593328D01*
X193815170Y-196593328D02*
X193958027Y-196521900D01*
X193958027Y-196521900D02*
X194029456Y-196450471D01*
X194029456Y-196450471D02*
X194172313Y-196236185D01*
X194172313Y-196236185D02*
X194243742Y-195950471D01*
X194243742Y-195950471D02*
X194243742Y-195379042D01*
X194243742Y-195379042D02*
X194172313Y-195236185D01*
X194172313Y-195236185D02*
X194100885Y-195164757D01*
X194100885Y-195164757D02*
X193958027Y-195093328D01*
X193958027Y-195093328D02*
X193672313Y-195093328D01*
X193672313Y-195093328D02*
X193529456Y-195164757D01*
X193529456Y-195164757D02*
X193458027Y-195236185D01*
X193458027Y-195236185D02*
X193386599Y-195379042D01*
X193386599Y-195379042D02*
X193386599Y-195736185D01*
X193386599Y-195736185D02*
X193458027Y-195879042D01*
X193458027Y-195879042D02*
X193529456Y-195950471D01*
X193529456Y-195950471D02*
X193672313Y-196021900D01*
X193672313Y-196021900D02*
X193958027Y-196021900D01*
X193958027Y-196021900D02*
X194100885Y-195950471D01*
X194100885Y-195950471D02*
X194172313Y-195879042D01*
X194172313Y-195879042D02*
X194243742Y-195736185D01*
X194886598Y-196450471D02*
X194958027Y-196521900D01*
X194958027Y-196521900D02*
X194886598Y-196593328D01*
X194886598Y-196593328D02*
X194815170Y-196521900D01*
X194815170Y-196521900D02*
X194886598Y-196450471D01*
X194886598Y-196450471D02*
X194886598Y-196593328D01*
X195886599Y-195093328D02*
X196029456Y-195093328D01*
X196029456Y-195093328D02*
X196172313Y-195164757D01*
X196172313Y-195164757D02*
X196243742Y-195236185D01*
X196243742Y-195236185D02*
X196315170Y-195379042D01*
X196315170Y-195379042D02*
X196386599Y-195664757D01*
X196386599Y-195664757D02*
X196386599Y-196021900D01*
X196386599Y-196021900D02*
X196315170Y-196307614D01*
X196315170Y-196307614D02*
X196243742Y-196450471D01*
X196243742Y-196450471D02*
X196172313Y-196521900D01*
X196172313Y-196521900D02*
X196029456Y-196593328D01*
X196029456Y-196593328D02*
X195886599Y-196593328D01*
X195886599Y-196593328D02*
X195743742Y-196521900D01*
X195743742Y-196521900D02*
X195672313Y-196450471D01*
X195672313Y-196450471D02*
X195600884Y-196307614D01*
X195600884Y-196307614D02*
X195529456Y-196021900D01*
X195529456Y-196021900D02*
X195529456Y-195664757D01*
X195529456Y-195664757D02*
X195600884Y-195379042D01*
X195600884Y-195379042D02*
X195672313Y-195236185D01*
X195672313Y-195236185D02*
X195743742Y-195164757D01*
X195743742Y-195164757D02*
X195886599Y-195093328D01*
X197029455Y-196450471D02*
X197100884Y-196521900D01*
X197100884Y-196521900D02*
X197029455Y-196593328D01*
X197029455Y-196593328D02*
X196958027Y-196521900D01*
X196958027Y-196521900D02*
X197029455Y-196450471D01*
X197029455Y-196450471D02*
X197029455Y-196593328D01*
X197672313Y-195236185D02*
X197743741Y-195164757D01*
X197743741Y-195164757D02*
X197886599Y-195093328D01*
X197886599Y-195093328D02*
X198243741Y-195093328D01*
X198243741Y-195093328D02*
X198386599Y-195164757D01*
X198386599Y-195164757D02*
X198458027Y-195236185D01*
X198458027Y-195236185D02*
X198529456Y-195379042D01*
X198529456Y-195379042D02*
X198529456Y-195521900D01*
X198529456Y-195521900D02*
X198458027Y-195736185D01*
X198458027Y-195736185D02*
X197600884Y-196593328D01*
X197600884Y-196593328D02*
X198529456Y-196593328D01*
D10*
D11*
X177002200Y-191507200D02*
X285002200Y-191507200D01*
D10*
D12*
X264413853Y-193785528D02*
X263913853Y-193071242D01*
X263556710Y-193785528D02*
X263556710Y-192285528D01*
X263556710Y-192285528D02*
X264128139Y-192285528D01*
X264128139Y-192285528D02*
X264270996Y-192356957D01*
X264270996Y-192356957D02*
X264342425Y-192428385D01*
X264342425Y-192428385D02*
X264413853Y-192571242D01*
X264413853Y-192571242D02*
X264413853Y-192785528D01*
X264413853Y-192785528D02*
X264342425Y-192928385D01*
X264342425Y-192928385D02*
X264270996Y-192999814D01*
X264270996Y-192999814D02*
X264128139Y-193071242D01*
X264128139Y-193071242D02*
X263556710Y-193071242D01*
X265628139Y-193714100D02*
X265485282Y-193785528D01*
X265485282Y-193785528D02*
X265199568Y-193785528D01*
X265199568Y-193785528D02*
X265056710Y-193714100D01*
X265056710Y-193714100D02*
X264985282Y-193571242D01*
X264985282Y-193571242D02*
X264985282Y-192999814D01*
X264985282Y-192999814D02*
X265056710Y-192856957D01*
X265056710Y-192856957D02*
X265199568Y-192785528D01*
X265199568Y-192785528D02*
X265485282Y-192785528D01*
X265485282Y-192785528D02*
X265628139Y-192856957D01*
X265628139Y-192856957D02*
X265699568Y-192999814D01*
X265699568Y-192999814D02*
X265699568Y-193142671D01*
X265699568Y-193142671D02*
X264985282Y-193285528D01*
X266199567Y-192785528D02*
X266556710Y-193785528D01*
X266556710Y-193785528D02*
X266913853Y-192785528D01*
X267485281Y-193642671D02*
X267556710Y-193714100D01*
X267556710Y-193714100D02*
X267485281Y-193785528D01*
X267485281Y-193785528D02*
X267413853Y-193714100D01*
X267413853Y-193714100D02*
X267485281Y-193642671D01*
X267485281Y-193642671D02*
X267485281Y-193785528D01*
X267485281Y-192856957D02*
X267556710Y-192928385D01*
X267556710Y-192928385D02*
X267485281Y-192999814D01*
X267485281Y-192999814D02*
X267413853Y-192928385D01*
X267413853Y-192928385D02*
X267485281Y-192856957D01*
X267485281Y-192856957D02*
X267485281Y-192999814D01*
D10*
D11*
X178386598Y-193721900D02*
X178600884Y-193793328D01*
X178600884Y-193793328D02*
X178958026Y-193793328D01*
X178958026Y-193793328D02*
X179100884Y-193721900D01*
X179100884Y-193721900D02*
X179172312Y-193650471D01*
X179172312Y-193650471D02*
X179243741Y-193507614D01*
X179243741Y-193507614D02*
X179243741Y-193364757D01*
X179243741Y-193364757D02*
X179172312Y-193221900D01*
X179172312Y-193221900D02*
X179100884Y-193150471D01*
X179100884Y-193150471D02*
X178958026Y-193079042D01*
X178958026Y-193079042D02*
X178672312Y-193007614D01*
X178672312Y-193007614D02*
X178529455Y-192936185D01*
X178529455Y-192936185D02*
X178458026Y-192864757D01*
X178458026Y-192864757D02*
X178386598Y-192721900D01*
X178386598Y-192721900D02*
X178386598Y-192579042D01*
X178386598Y-192579042D02*
X178458026Y-192436185D01*
X178458026Y-192436185D02*
X178529455Y-192364757D01*
X178529455Y-192364757D02*
X178672312Y-192293328D01*
X178672312Y-192293328D02*
X179029455Y-192293328D01*
X179029455Y-192293328D02*
X179243741Y-192364757D01*
X179886597Y-193793328D02*
X179886597Y-192793328D01*
X179886597Y-192293328D02*
X179815169Y-192364757D01*
X179815169Y-192364757D02*
X179886597Y-192436185D01*
X179886597Y-192436185D02*
X179958026Y-192364757D01*
X179958026Y-192364757D02*
X179886597Y-192293328D01*
X179886597Y-192293328D02*
X179886597Y-192436185D01*
X180458026Y-192793328D02*
X181243741Y-192793328D01*
X181243741Y-192793328D02*
X180458026Y-193793328D01*
X180458026Y-193793328D02*
X181243741Y-193793328D01*
X182386598Y-193721900D02*
X182243741Y-193793328D01*
X182243741Y-193793328D02*
X181958027Y-193793328D01*
X181958027Y-193793328D02*
X181815169Y-193721900D01*
X181815169Y-193721900D02*
X181743741Y-193579042D01*
X181743741Y-193579042D02*
X181743741Y-193007614D01*
X181743741Y-193007614D02*
X181815169Y-192864757D01*
X181815169Y-192864757D02*
X181958027Y-192793328D01*
X181958027Y-192793328D02*
X182243741Y-192793328D01*
X182243741Y-192793328D02*
X182386598Y-192864757D01*
X182386598Y-192864757D02*
X182458027Y-193007614D01*
X182458027Y-193007614D02*
X182458027Y-193150471D01*
X182458027Y-193150471D02*
X181743741Y-193293328D01*
X183100883Y-193650471D02*
X183172312Y-193721900D01*
X183172312Y-193721900D02*
X183100883Y-193793328D01*
X183100883Y-193793328D02*
X183029455Y-193721900D01*
X183029455Y-193721900D02*
X183100883Y-193650471D01*
X183100883Y-193650471D02*
X183100883Y-193793328D01*
X183100883Y-192864757D02*
X183172312Y-192936185D01*
X183172312Y-192936185D02*
X183100883Y-193007614D01*
X183100883Y-193007614D02*
X183029455Y-192936185D01*
X183029455Y-192936185D02*
X183100883Y-192864757D01*
X183100883Y-192864757D02*
X183100883Y-193007614D01*
X184886598Y-193364757D02*
X185600884Y-193364757D01*
X184743741Y-193793328D02*
X185243741Y-192293328D01*
X185243741Y-192293328D02*
X185743741Y-193793328D01*
X186886598Y-192793328D02*
X186886598Y-193793328D01*
X186529455Y-192221900D02*
X186172312Y-193293328D01*
X186172312Y-193293328D02*
X187100883Y-193293328D01*
D10*
D11*
X263458026Y-196593328D02*
X263458026Y-195093328D01*
X264815170Y-196593328D02*
X264815170Y-195093328D01*
X264815170Y-196521900D02*
X264672312Y-196593328D01*
X264672312Y-196593328D02*
X264386598Y-196593328D01*
X264386598Y-196593328D02*
X264243741Y-196521900D01*
X264243741Y-196521900D02*
X264172312Y-196450471D01*
X264172312Y-196450471D02*
X264100884Y-196307614D01*
X264100884Y-196307614D02*
X264100884Y-195879042D01*
X264100884Y-195879042D02*
X264172312Y-195736185D01*
X264172312Y-195736185D02*
X264243741Y-195664757D01*
X264243741Y-195664757D02*
X264386598Y-195593328D01*
X264386598Y-195593328D02*
X264672312Y-195593328D01*
X264672312Y-195593328D02*
X264815170Y-195664757D01*
X265529455Y-196450471D02*
X265600884Y-196521900D01*
X265600884Y-196521900D02*
X265529455Y-196593328D01*
X265529455Y-196593328D02*
X265458027Y-196521900D01*
X265458027Y-196521900D02*
X265529455Y-196450471D01*
X265529455Y-196450471D02*
X265529455Y-196593328D01*
X265529455Y-195664757D02*
X265600884Y-195736185D01*
X265600884Y-195736185D02*
X265529455Y-195807614D01*
X265529455Y-195807614D02*
X265458027Y-195736185D01*
X265458027Y-195736185D02*
X265529455Y-195664757D01*
X265529455Y-195664757D02*
X265529455Y-195807614D01*
X268029456Y-195093328D02*
X267743741Y-195093328D01*
X267743741Y-195093328D02*
X267600884Y-195164757D01*
X267600884Y-195164757D02*
X267529456Y-195236185D01*
X267529456Y-195236185D02*
X267386598Y-195450471D01*
X267386598Y-195450471D02*
X267315170Y-195736185D01*
X267315170Y-195736185D02*
X267315170Y-196307614D01*
X267315170Y-196307614D02*
X267386598Y-196450471D01*
X267386598Y-196450471D02*
X267458027Y-196521900D01*
X267458027Y-196521900D02*
X267600884Y-196593328D01*
X267600884Y-196593328D02*
X267886598Y-196593328D01*
X267886598Y-196593328D02*
X268029456Y-196521900D01*
X268029456Y-196521900D02*
X268100884Y-196450471D01*
X268100884Y-196450471D02*
X268172313Y-196307614D01*
X268172313Y-196307614D02*
X268172313Y-195950471D01*
X268172313Y-195950471D02*
X268100884Y-195807614D01*
X268100884Y-195807614D02*
X268029456Y-195736185D01*
X268029456Y-195736185D02*
X267886598Y-195664757D01*
X267886598Y-195664757D02*
X267600884Y-195664757D01*
X267600884Y-195664757D02*
X267458027Y-195736185D01*
X267458027Y-195736185D02*
X267386598Y-195807614D01*
X267386598Y-195807614D02*
X267315170Y-195950471D01*
X269886598Y-195021900D02*
X268600884Y-196950471D01*
X270458027Y-196593328D02*
X270743741Y-196593328D01*
X270743741Y-196593328D02*
X270886598Y-196521900D01*
X270886598Y-196521900D02*
X270958027Y-196450471D01*
X270958027Y-196450471D02*
X271100884Y-196236185D01*
X271100884Y-196236185D02*
X271172313Y-195950471D01*
X271172313Y-195950471D02*
X271172313Y-195379042D01*
X271172313Y-195379042D02*
X271100884Y-195236185D01*
X271100884Y-195236185D02*
X271029456Y-195164757D01*
X271029456Y-195164757D02*
X270886598Y-195093328D01*
X270886598Y-195093328D02*
X270600884Y-195093328D01*
X270600884Y-195093328D02*
X270458027Y-195164757D01*
X270458027Y-195164757D02*
X270386598Y-195236185D01*
X270386598Y-195236185D02*
X270315170Y-195379042D01*
X270315170Y-195379042D02*
X270315170Y-195736185D01*
X270315170Y-195736185D02*
X270386598Y-195879042D01*
X270386598Y-195879042D02*
X270458027Y-195950471D01*
X270458027Y-195950471D02*
X270600884Y-196021900D01*
X270600884Y-196021900D02*
X270886598Y-196021900D01*
X270886598Y-196021900D02*
X271029456Y-195950471D01*
X271029456Y-195950471D02*
X271100884Y-195879042D01*
X271100884Y-195879042D02*
X271172313Y-195736185D01*
D10*
D11*
X177002200Y-187507200D02*
X285002200Y-187507200D01*
D10*
D13*
X178693928Y-188211638D02*
X179836785Y-188211638D01*
X179015357Y-190211638D02*
X179265357Y-188211638D01*
X180253452Y-190211638D02*
X180420119Y-188878304D01*
X180503452Y-188211638D02*
X180396309Y-188306876D01*
X180396309Y-188306876D02*
X180479643Y-188402114D01*
X180479643Y-188402114D02*
X180586786Y-188306876D01*
X180586786Y-188306876D02*
X180503452Y-188211638D01*
X180503452Y-188211638D02*
X180479643Y-188402114D01*
X181086786Y-188878304D02*
X181848690Y-188878304D01*
X181455833Y-188211638D02*
X181241548Y-189925923D01*
X181241548Y-189925923D02*
X181312976Y-190116400D01*
X181312976Y-190116400D02*
X181491548Y-190211638D01*
X181491548Y-190211638D02*
X181682024Y-190211638D01*
X182634405Y-190211638D02*
X182455833Y-190116400D01*
X182455833Y-190116400D02*
X182384405Y-189925923D01*
X182384405Y-189925923D02*
X182598690Y-188211638D01*
X184170119Y-190116400D02*
X183967738Y-190211638D01*
X183967738Y-190211638D02*
X183586785Y-190211638D01*
X183586785Y-190211638D02*
X183408214Y-190116400D01*
X183408214Y-190116400D02*
X183336785Y-189925923D01*
X183336785Y-189925923D02*
X183432024Y-189164019D01*
X183432024Y-189164019D02*
X183551071Y-188973542D01*
X183551071Y-188973542D02*
X183753452Y-188878304D01*
X183753452Y-188878304D02*
X184134404Y-188878304D01*
X184134404Y-188878304D02*
X184312976Y-188973542D01*
X184312976Y-188973542D02*
X184384404Y-189164019D01*
X184384404Y-189164019D02*
X184360595Y-189354495D01*
X184360595Y-189354495D02*
X183384404Y-189544971D01*
X185134405Y-190021161D02*
X185217738Y-190116400D01*
X185217738Y-190116400D02*
X185110595Y-190211638D01*
X185110595Y-190211638D02*
X185027262Y-190116400D01*
X185027262Y-190116400D02*
X185134405Y-190021161D01*
X185134405Y-190021161D02*
X185110595Y-190211638D01*
X185265357Y-188973542D02*
X185348690Y-189068780D01*
X185348690Y-189068780D02*
X185241548Y-189164019D01*
X185241548Y-189164019D02*
X185158214Y-189068780D01*
X185158214Y-189068780D02*
X185265357Y-188973542D01*
X185265357Y-188973542D02*
X185241548Y-189164019D01*
D10*
D11*
X178958026Y-185607614D02*
X178458026Y-185607614D01*
X178458026Y-186393328D02*
X178458026Y-184893328D01*
X178458026Y-184893328D02*
X179172312Y-184893328D01*
X179743740Y-186393328D02*
X179743740Y-185393328D01*
X179743740Y-184893328D02*
X179672312Y-184964757D01*
X179672312Y-184964757D02*
X179743740Y-185036185D01*
X179743740Y-185036185D02*
X179815169Y-184964757D01*
X179815169Y-184964757D02*
X179743740Y-184893328D01*
X179743740Y-184893328D02*
X179743740Y-185036185D01*
X180672312Y-186393328D02*
X180529455Y-186321900D01*
X180529455Y-186321900D02*
X180458026Y-186179042D01*
X180458026Y-186179042D02*
X180458026Y-184893328D01*
X181815169Y-186321900D02*
X181672312Y-186393328D01*
X181672312Y-186393328D02*
X181386598Y-186393328D01*
X181386598Y-186393328D02*
X181243740Y-186321900D01*
X181243740Y-186321900D02*
X181172312Y-186179042D01*
X181172312Y-186179042D02*
X181172312Y-185607614D01*
X181172312Y-185607614D02*
X181243740Y-185464757D01*
X181243740Y-185464757D02*
X181386598Y-185393328D01*
X181386598Y-185393328D02*
X181672312Y-185393328D01*
X181672312Y-185393328D02*
X181815169Y-185464757D01*
X181815169Y-185464757D02*
X181886598Y-185607614D01*
X181886598Y-185607614D02*
X181886598Y-185750471D01*
X181886598Y-185750471D02*
X181172312Y-185893328D01*
X182529454Y-186250471D02*
X182600883Y-186321900D01*
X182600883Y-186321900D02*
X182529454Y-186393328D01*
X182529454Y-186393328D02*
X182458026Y-186321900D01*
X182458026Y-186321900D02*
X182529454Y-186250471D01*
X182529454Y-186250471D02*
X182529454Y-186393328D01*
X182529454Y-185464757D02*
X182600883Y-185536185D01*
X182600883Y-185536185D02*
X182529454Y-185607614D01*
X182529454Y-185607614D02*
X182458026Y-185536185D01*
X182458026Y-185536185D02*
X182529454Y-185464757D01*
X182529454Y-185464757D02*
X182529454Y-185607614D01*
X184386597Y-186393328D02*
X184386597Y-184893328D01*
X184386597Y-184893328D02*
X184958026Y-184893328D01*
X184958026Y-184893328D02*
X185100883Y-184964757D01*
X185100883Y-184964757D02*
X185172312Y-185036185D01*
X185172312Y-185036185D02*
X185243740Y-185179042D01*
X185243740Y-185179042D02*
X185243740Y-185393328D01*
X185243740Y-185393328D02*
X185172312Y-185536185D01*
X185172312Y-185536185D02*
X185100883Y-185607614D01*
X185100883Y-185607614D02*
X184958026Y-185679042D01*
X184958026Y-185679042D02*
X184386597Y-185679042D01*
X185886597Y-186393328D02*
X185886597Y-185393328D01*
X185886597Y-185679042D02*
X185958026Y-185536185D01*
X185958026Y-185536185D02*
X186029455Y-185464757D01*
X186029455Y-185464757D02*
X186172312Y-185393328D01*
X186172312Y-185393328D02*
X186315169Y-185393328D01*
X187029454Y-186393328D02*
X186886597Y-186321900D01*
X186886597Y-186321900D02*
X186815168Y-186250471D01*
X186815168Y-186250471D02*
X186743740Y-186107614D01*
X186743740Y-186107614D02*
X186743740Y-185679042D01*
X186743740Y-185679042D02*
X186815168Y-185536185D01*
X186815168Y-185536185D02*
X186886597Y-185464757D01*
X186886597Y-185464757D02*
X187029454Y-185393328D01*
X187029454Y-185393328D02*
X187243740Y-185393328D01*
X187243740Y-185393328D02*
X187386597Y-185464757D01*
X187386597Y-185464757D02*
X187458026Y-185536185D01*
X187458026Y-185536185D02*
X187529454Y-185679042D01*
X187529454Y-185679042D02*
X187529454Y-186107614D01*
X187529454Y-186107614D02*
X187458026Y-186250471D01*
X187458026Y-186250471D02*
X187386597Y-186321900D01*
X187386597Y-186321900D02*
X187243740Y-186393328D01*
X187243740Y-186393328D02*
X187029454Y-186393328D01*
X188172311Y-185393328D02*
X188172311Y-186679042D01*
X188172311Y-186679042D02*
X188100883Y-186821900D01*
X188100883Y-186821900D02*
X187958026Y-186893328D01*
X187958026Y-186893328D02*
X187886597Y-186893328D01*
X188172311Y-184893328D02*
X188100883Y-184964757D01*
X188100883Y-184964757D02*
X188172311Y-185036185D01*
X188172311Y-185036185D02*
X188243740Y-184964757D01*
X188243740Y-184964757D02*
X188172311Y-184893328D01*
X188172311Y-184893328D02*
X188172311Y-185036185D01*
X189458026Y-186321900D02*
X189315169Y-186393328D01*
X189315169Y-186393328D02*
X189029455Y-186393328D01*
X189029455Y-186393328D02*
X188886597Y-186321900D01*
X188886597Y-186321900D02*
X188815169Y-186179042D01*
X188815169Y-186179042D02*
X188815169Y-185607614D01*
X188815169Y-185607614D02*
X188886597Y-185464757D01*
X188886597Y-185464757D02*
X189029455Y-185393328D01*
X189029455Y-185393328D02*
X189315169Y-185393328D01*
X189315169Y-185393328D02*
X189458026Y-185464757D01*
X189458026Y-185464757D02*
X189529455Y-185607614D01*
X189529455Y-185607614D02*
X189529455Y-185750471D01*
X189529455Y-185750471D02*
X188815169Y-185893328D01*
X190815169Y-186321900D02*
X190672311Y-186393328D01*
X190672311Y-186393328D02*
X190386597Y-186393328D01*
X190386597Y-186393328D02*
X190243740Y-186321900D01*
X190243740Y-186321900D02*
X190172311Y-186250471D01*
X190172311Y-186250471D02*
X190100883Y-186107614D01*
X190100883Y-186107614D02*
X190100883Y-185679042D01*
X190100883Y-185679042D02*
X190172311Y-185536185D01*
X190172311Y-185536185D02*
X190243740Y-185464757D01*
X190243740Y-185464757D02*
X190386597Y-185393328D01*
X190386597Y-185393328D02*
X190672311Y-185393328D01*
X190672311Y-185393328D02*
X190815169Y-185464757D01*
X191243740Y-185393328D02*
X191815168Y-185393328D01*
X191458025Y-184893328D02*
X191458025Y-186179042D01*
X191458025Y-186179042D02*
X191529454Y-186321900D01*
X191529454Y-186321900D02*
X191672311Y-186393328D01*
X191672311Y-186393328D02*
X191815168Y-186393328D01*
X192315168Y-186250471D02*
X192386597Y-186321900D01*
X192386597Y-186321900D02*
X192315168Y-186393328D01*
X192315168Y-186393328D02*
X192243740Y-186321900D01*
X192243740Y-186321900D02*
X192315168Y-186250471D01*
X192315168Y-186250471D02*
X192315168Y-186393328D01*
X193029454Y-186393328D02*
X193029454Y-184893328D01*
X193172312Y-185821900D02*
X193600883Y-186393328D01*
X193600883Y-185393328D02*
X193029454Y-185964757D01*
X194243740Y-186393328D02*
X194243740Y-185393328D01*
X194243740Y-184893328D02*
X194172312Y-184964757D01*
X194172312Y-184964757D02*
X194243740Y-185036185D01*
X194243740Y-185036185D02*
X194315169Y-184964757D01*
X194315169Y-184964757D02*
X194243740Y-184893328D01*
X194243740Y-184893328D02*
X194243740Y-185036185D01*
X195600884Y-186321900D02*
X195458026Y-186393328D01*
X195458026Y-186393328D02*
X195172312Y-186393328D01*
X195172312Y-186393328D02*
X195029455Y-186321900D01*
X195029455Y-186321900D02*
X194958026Y-186250471D01*
X194958026Y-186250471D02*
X194886598Y-186107614D01*
X194886598Y-186107614D02*
X194886598Y-185679042D01*
X194886598Y-185679042D02*
X194958026Y-185536185D01*
X194958026Y-185536185D02*
X195029455Y-185464757D01*
X195029455Y-185464757D02*
X195172312Y-185393328D01*
X195172312Y-185393328D02*
X195458026Y-185393328D01*
X195458026Y-185393328D02*
X195600884Y-185464757D01*
X196886598Y-186393328D02*
X196886598Y-185607614D01*
X196886598Y-185607614D02*
X196815169Y-185464757D01*
X196815169Y-185464757D02*
X196672312Y-185393328D01*
X196672312Y-185393328D02*
X196386598Y-185393328D01*
X196386598Y-185393328D02*
X196243740Y-185464757D01*
X196886598Y-186321900D02*
X196743740Y-186393328D01*
X196743740Y-186393328D02*
X196386598Y-186393328D01*
X196386598Y-186393328D02*
X196243740Y-186321900D01*
X196243740Y-186321900D02*
X196172312Y-186179042D01*
X196172312Y-186179042D02*
X196172312Y-186036185D01*
X196172312Y-186036185D02*
X196243740Y-185893328D01*
X196243740Y-185893328D02*
X196386598Y-185821900D01*
X196386598Y-185821900D02*
X196743740Y-185821900D01*
X196743740Y-185821900D02*
X196886598Y-185750471D01*
X198243741Y-186393328D02*
X198243741Y-184893328D01*
X198243741Y-186321900D02*
X198100883Y-186393328D01*
X198100883Y-186393328D02*
X197815169Y-186393328D01*
X197815169Y-186393328D02*
X197672312Y-186321900D01*
X197672312Y-186321900D02*
X197600883Y-186250471D01*
X197600883Y-186250471D02*
X197529455Y-186107614D01*
X197529455Y-186107614D02*
X197529455Y-185679042D01*
X197529455Y-185679042D02*
X197600883Y-185536185D01*
X197600883Y-185536185D02*
X197672312Y-185464757D01*
X197672312Y-185464757D02*
X197815169Y-185393328D01*
X197815169Y-185393328D02*
X198100883Y-185393328D01*
X198100883Y-185393328D02*
X198243741Y-185464757D01*
X198600884Y-186536185D02*
X199743741Y-186536185D01*
X200100883Y-185393328D02*
X200100883Y-186893328D01*
X200100883Y-185464757D02*
X200243741Y-185393328D01*
X200243741Y-185393328D02*
X200529455Y-185393328D01*
X200529455Y-185393328D02*
X200672312Y-185464757D01*
X200672312Y-185464757D02*
X200743741Y-185536185D01*
X200743741Y-185536185D02*
X200815169Y-185679042D01*
X200815169Y-185679042D02*
X200815169Y-186107614D01*
X200815169Y-186107614D02*
X200743741Y-186250471D01*
X200743741Y-186250471D02*
X200672312Y-186321900D01*
X200672312Y-186321900D02*
X200529455Y-186393328D01*
X200529455Y-186393328D02*
X200243741Y-186393328D01*
X200243741Y-186393328D02*
X200100883Y-186321900D01*
X202100884Y-186321900D02*
X201958026Y-186393328D01*
X201958026Y-186393328D02*
X201672312Y-186393328D01*
X201672312Y-186393328D02*
X201529455Y-186321900D01*
X201529455Y-186321900D02*
X201458026Y-186250471D01*
X201458026Y-186250471D02*
X201386598Y-186107614D01*
X201386598Y-186107614D02*
X201386598Y-185679042D01*
X201386598Y-185679042D02*
X201458026Y-185536185D01*
X201458026Y-185536185D02*
X201529455Y-185464757D01*
X201529455Y-185464757D02*
X201672312Y-185393328D01*
X201672312Y-185393328D02*
X201958026Y-185393328D01*
X201958026Y-185393328D02*
X202100884Y-185464757D01*
X202743740Y-186393328D02*
X202743740Y-184893328D01*
X202743740Y-185464757D02*
X202886598Y-185393328D01*
X202886598Y-185393328D02*
X203172312Y-185393328D01*
X203172312Y-185393328D02*
X203315169Y-185464757D01*
X203315169Y-185464757D02*
X203386598Y-185536185D01*
X203386598Y-185536185D02*
X203458026Y-185679042D01*
X203458026Y-185679042D02*
X203458026Y-186107614D01*
X203458026Y-186107614D02*
X203386598Y-186250471D01*
X203386598Y-186250471D02*
X203315169Y-186321900D01*
X203315169Y-186321900D02*
X203172312Y-186393328D01*
X203172312Y-186393328D02*
X202886598Y-186393328D01*
X202886598Y-186393328D02*
X202743740Y-186321900D01*
D10*
D11*
X177002200Y-181507200D02*
X285002200Y-181507200D01*
D10*
D11*
X178386598Y-183621900D02*
X178600884Y-183693328D01*
X178600884Y-183693328D02*
X178958026Y-183693328D01*
X178958026Y-183693328D02*
X179100884Y-183621900D01*
X179100884Y-183621900D02*
X179172312Y-183550471D01*
X179172312Y-183550471D02*
X179243741Y-183407614D01*
X179243741Y-183407614D02*
X179243741Y-183264757D01*
X179243741Y-183264757D02*
X179172312Y-183121900D01*
X179172312Y-183121900D02*
X179100884Y-183050471D01*
X179100884Y-183050471D02*
X178958026Y-182979042D01*
X178958026Y-182979042D02*
X178672312Y-182907614D01*
X178672312Y-182907614D02*
X178529455Y-182836185D01*
X178529455Y-182836185D02*
X178458026Y-182764757D01*
X178458026Y-182764757D02*
X178386598Y-182621900D01*
X178386598Y-182621900D02*
X178386598Y-182479042D01*
X178386598Y-182479042D02*
X178458026Y-182336185D01*
X178458026Y-182336185D02*
X178529455Y-182264757D01*
X178529455Y-182264757D02*
X178672312Y-182193328D01*
X178672312Y-182193328D02*
X179029455Y-182193328D01*
X179029455Y-182193328D02*
X179243741Y-182264757D01*
X179886597Y-183693328D02*
X179886597Y-182193328D01*
X180529455Y-183693328D02*
X180529455Y-182907614D01*
X180529455Y-182907614D02*
X180458026Y-182764757D01*
X180458026Y-182764757D02*
X180315169Y-182693328D01*
X180315169Y-182693328D02*
X180100883Y-182693328D01*
X180100883Y-182693328D02*
X179958026Y-182764757D01*
X179958026Y-182764757D02*
X179886597Y-182836185D01*
X181815169Y-183621900D02*
X181672312Y-183693328D01*
X181672312Y-183693328D02*
X181386598Y-183693328D01*
X181386598Y-183693328D02*
X181243740Y-183621900D01*
X181243740Y-183621900D02*
X181172312Y-183479042D01*
X181172312Y-183479042D02*
X181172312Y-182907614D01*
X181172312Y-182907614D02*
X181243740Y-182764757D01*
X181243740Y-182764757D02*
X181386598Y-182693328D01*
X181386598Y-182693328D02*
X181672312Y-182693328D01*
X181672312Y-182693328D02*
X181815169Y-182764757D01*
X181815169Y-182764757D02*
X181886598Y-182907614D01*
X181886598Y-182907614D02*
X181886598Y-183050471D01*
X181886598Y-183050471D02*
X181172312Y-183193328D01*
X183100883Y-183621900D02*
X182958026Y-183693328D01*
X182958026Y-183693328D02*
X182672312Y-183693328D01*
X182672312Y-183693328D02*
X182529454Y-183621900D01*
X182529454Y-183621900D02*
X182458026Y-183479042D01*
X182458026Y-183479042D02*
X182458026Y-182907614D01*
X182458026Y-182907614D02*
X182529454Y-182764757D01*
X182529454Y-182764757D02*
X182672312Y-182693328D01*
X182672312Y-182693328D02*
X182958026Y-182693328D01*
X182958026Y-182693328D02*
X183100883Y-182764757D01*
X183100883Y-182764757D02*
X183172312Y-182907614D01*
X183172312Y-182907614D02*
X183172312Y-183050471D01*
X183172312Y-183050471D02*
X182458026Y-183193328D01*
X183600883Y-182693328D02*
X184172311Y-182693328D01*
X183815168Y-182193328D02*
X183815168Y-183479042D01*
X183815168Y-183479042D02*
X183886597Y-183621900D01*
X183886597Y-183621900D02*
X184029454Y-183693328D01*
X184029454Y-183693328D02*
X184172311Y-183693328D01*
X184672311Y-183550471D02*
X184743740Y-183621900D01*
X184743740Y-183621900D02*
X184672311Y-183693328D01*
X184672311Y-183693328D02*
X184600883Y-183621900D01*
X184600883Y-183621900D02*
X184672311Y-183550471D01*
X184672311Y-183550471D02*
X184672311Y-183693328D01*
X184672311Y-182764757D02*
X184743740Y-182836185D01*
X184743740Y-182836185D02*
X184672311Y-182907614D01*
X184672311Y-182907614D02*
X184600883Y-182836185D01*
X184600883Y-182836185D02*
X184672311Y-182764757D01*
X184672311Y-182764757D02*
X184672311Y-182907614D01*
D10*
D11*
X197002200Y-191507200D02*
X197002200Y-194507200D01*
D10*
D11*
X261002200Y-191507200D02*
X261002200Y-198007200D01*
X119438094Y-95344819D02*
X119438094Y-94344819D01*
X119438094Y-94344819D02*
X119199999Y-94344819D01*
X119199999Y-94344819D02*
X119057142Y-94392438D01*
X119057142Y-94392438D02*
X118961904Y-94487676D01*
X118961904Y-94487676D02*
X118914285Y-94582914D01*
X118914285Y-94582914D02*
X118866666Y-94773390D01*
X118866666Y-94773390D02*
X118866666Y-94916247D01*
X118866666Y-94916247D02*
X118914285Y-95106723D01*
X118914285Y-95106723D02*
X118961904Y-95201961D01*
X118961904Y-95201961D02*
X119057142Y-95297200D01*
X119057142Y-95297200D02*
X119199999Y-95344819D01*
X119199999Y-95344819D02*
X119438094Y-95344819D01*
X117914285Y-95344819D02*
X118485713Y-95344819D01*
X118199999Y-95344819D02*
X118199999Y-94344819D01*
X118199999Y-94344819D02*
X118295237Y-94487676D01*
X118295237Y-94487676D02*
X118390475Y-94582914D01*
X118390475Y-94582914D02*
X118485713Y-94630533D01*
X124041904Y-95714819D02*
X124041904Y-94714819D01*
X123470476Y-95714819D02*
X123899047Y-95143390D01*
X123470476Y-94714819D02*
X124041904Y-95286247D01*
X148326904Y-75562319D02*
X148326904Y-76371842D01*
X148326904Y-76371842D02*
X148279285Y-76467080D01*
X148279285Y-76467080D02*
X148231666Y-76514700D01*
X148231666Y-76514700D02*
X148136428Y-76562319D01*
X148136428Y-76562319D02*
X147945952Y-76562319D01*
X147945952Y-76562319D02*
X147850714Y-76514700D01*
X147850714Y-76514700D02*
X147803095Y-76467080D01*
X147803095Y-76467080D02*
X147755476Y-76371842D01*
X147755476Y-76371842D02*
X147755476Y-75562319D01*
X146755476Y-76562319D02*
X147326904Y-76562319D01*
X147041190Y-76562319D02*
X147041190Y-75562319D01*
X147041190Y-75562319D02*
X147136428Y-75705176D01*
X147136428Y-75705176D02*
X147231666Y-75800414D01*
X147231666Y-75800414D02*
X147326904Y-75848033D01*
D10*
X114653884Y-90418533D02*
X115415789Y-90418533D01*
X120153884Y-89918533D02*
X120915789Y-89918533D01*
X120534836Y-89537580D02*
X120534836Y-90299485D01*
X141121904Y-44117419D02*
X141121904Y-44926942D01*
X141121904Y-44926942D02*
X141074285Y-45022180D01*
X141074285Y-45022180D02*
X141026666Y-45069800D01*
X141026666Y-45069800D02*
X140931428Y-45117419D01*
X140931428Y-45117419D02*
X140740952Y-45117419D01*
X140740952Y-45117419D02*
X140645714Y-45069800D01*
X140645714Y-45069800D02*
X140598095Y-45022180D01*
X140598095Y-45022180D02*
X140550476Y-44926942D01*
X140550476Y-44926942D02*
X140550476Y-44117419D01*
X140169523Y-44117419D02*
X139502857Y-44117419D01*
X139502857Y-44117419D02*
X139931428Y-45117419D01*
X138532306Y-40032419D02*
X139103734Y-40032419D01*
X138818020Y-40032419D02*
X138818020Y-39032419D01*
X138818020Y-39032419D02*
X138913258Y-39175276D01*
X138913258Y-39175276D02*
X139008496Y-39270514D01*
X139008496Y-39270514D02*
X139103734Y-39318133D01*
X138151353Y-39127657D02*
X138103734Y-39080038D01*
X138103734Y-39080038D02*
X138008496Y-39032419D01*
X138008496Y-39032419D02*
X137770401Y-39032419D01*
X137770401Y-39032419D02*
X137675163Y-39080038D01*
X137675163Y-39080038D02*
X137627544Y-39127657D01*
X137627544Y-39127657D02*
X137579925Y-39222895D01*
X137579925Y-39222895D02*
X137579925Y-39318133D01*
X137579925Y-39318133D02*
X137627544Y-39460990D01*
X137627544Y-39460990D02*
X138198972Y-40032419D01*
X138198972Y-40032419D02*
X137579925Y-40032419D01*
X137151353Y-39651466D02*
X136389449Y-39651466D01*
X136770401Y-40032419D02*
X136770401Y-39270514D01*
X142532306Y-40032419D02*
X143103734Y-40032419D01*
X142818020Y-40032419D02*
X142818020Y-39032419D01*
X142818020Y-39032419D02*
X142913258Y-39175276D01*
X142913258Y-39175276D02*
X143008496Y-39270514D01*
X143008496Y-39270514D02*
X143103734Y-39318133D01*
X142151353Y-39127657D02*
X142103734Y-39080038D01*
X142103734Y-39080038D02*
X142008496Y-39032419D01*
X142008496Y-39032419D02*
X141770401Y-39032419D01*
X141770401Y-39032419D02*
X141675163Y-39080038D01*
X141675163Y-39080038D02*
X141627544Y-39127657D01*
X141627544Y-39127657D02*
X141579925Y-39222895D01*
X141579925Y-39222895D02*
X141579925Y-39318133D01*
X141579925Y-39318133D02*
X141627544Y-39460990D01*
X141627544Y-39460990D02*
X142198972Y-40032419D01*
X142198972Y-40032419D02*
X141579925Y-40032419D01*
X141151353Y-39651466D02*
X140389449Y-39651466D01*
X156794360Y-46637580D02*
X156984836Y-46637580D01*
X156984836Y-46637580D02*
X157080074Y-46589961D01*
X157080074Y-46589961D02*
X157175312Y-46494723D01*
X157175312Y-46494723D02*
X157222931Y-46304247D01*
X157222931Y-46304247D02*
X157222931Y-45970914D01*
X157222931Y-45970914D02*
X157175312Y-45780438D01*
X157175312Y-45780438D02*
X157080074Y-45685200D01*
X157080074Y-45685200D02*
X156984836Y-45637580D01*
X156984836Y-45637580D02*
X156794360Y-45637580D01*
X156794360Y-45637580D02*
X156699122Y-45685200D01*
X156699122Y-45685200D02*
X156603884Y-45780438D01*
X156603884Y-45780438D02*
X156556265Y-45970914D01*
X156556265Y-45970914D02*
X156556265Y-46304247D01*
X156556265Y-46304247D02*
X156603884Y-46494723D01*
X156603884Y-46494723D02*
X156699122Y-46589961D01*
X156699122Y-46589961D02*
X156794360Y-46637580D01*
X157651503Y-46637580D02*
X157651503Y-45828057D01*
X157651503Y-45828057D02*
X157699122Y-45732819D01*
X157699122Y-45732819D02*
X157746741Y-45685200D01*
X157746741Y-45685200D02*
X157841979Y-45637580D01*
X157841979Y-45637580D02*
X158032455Y-45637580D01*
X158032455Y-45637580D02*
X158127693Y-45685200D01*
X158127693Y-45685200D02*
X158175312Y-45732819D01*
X158175312Y-45732819D02*
X158222931Y-45828057D01*
X158222931Y-45828057D02*
X158222931Y-46637580D01*
X158556265Y-46637580D02*
X159127693Y-46637580D01*
X158841979Y-45637580D02*
X158841979Y-46637580D01*
X159461027Y-46018533D02*
X160222932Y-46018533D01*
X159841979Y-45637580D02*
X159841979Y-46399485D01*
X150103884Y-47637580D02*
X150103884Y-48637580D01*
X150580074Y-47637580D02*
X150580074Y-48637580D01*
X150580074Y-48637580D02*
X151151502Y-47637580D01*
X151151502Y-47637580D02*
X151151502Y-48637580D01*
X151627693Y-48018533D02*
X152389598Y-48018533D01*
X147294360Y-46637580D02*
X147484836Y-46637580D01*
X147484836Y-46637580D02*
X147580074Y-46589961D01*
X147580074Y-46589961D02*
X147675312Y-46494723D01*
X147675312Y-46494723D02*
X147722931Y-46304247D01*
X147722931Y-46304247D02*
X147722931Y-45970914D01*
X147722931Y-45970914D02*
X147675312Y-45780438D01*
X147675312Y-45780438D02*
X147580074Y-45685200D01*
X147580074Y-45685200D02*
X147484836Y-45637580D01*
X147484836Y-45637580D02*
X147294360Y-45637580D01*
X147294360Y-45637580D02*
X147199122Y-45685200D01*
X147199122Y-45685200D02*
X147103884Y-45780438D01*
X147103884Y-45780438D02*
X147056265Y-45970914D01*
X147056265Y-45970914D02*
X147056265Y-46304247D01*
X147056265Y-46304247D02*
X147103884Y-46494723D01*
X147103884Y-46494723D02*
X147199122Y-46589961D01*
X147199122Y-46589961D02*
X147294360Y-46637580D01*
X148151503Y-46637580D02*
X148151503Y-45828057D01*
X148151503Y-45828057D02*
X148199122Y-45732819D01*
X148199122Y-45732819D02*
X148246741Y-45685200D01*
X148246741Y-45685200D02*
X148341979Y-45637580D01*
X148341979Y-45637580D02*
X148532455Y-45637580D01*
X148532455Y-45637580D02*
X148627693Y-45685200D01*
X148627693Y-45685200D02*
X148675312Y-45732819D01*
X148675312Y-45732819D02*
X148722931Y-45828057D01*
X148722931Y-45828057D02*
X148722931Y-46637580D01*
X149056265Y-46637580D02*
X149627693Y-46637580D01*
X149341979Y-45637580D02*
X149341979Y-46637580D01*
X149961027Y-46018533D02*
X150722932Y-46018533D01*
X148437217Y-37161390D02*
X148580074Y-37113771D01*
X148580074Y-37113771D02*
X148627693Y-37066152D01*
X148627693Y-37066152D02*
X148675312Y-36970914D01*
X148675312Y-36970914D02*
X148675312Y-36828057D01*
X148675312Y-36828057D02*
X148627693Y-36732819D01*
X148627693Y-36732819D02*
X148580074Y-36685200D01*
X148580074Y-36685200D02*
X148484836Y-36637580D01*
X148484836Y-36637580D02*
X148103884Y-36637580D01*
X148103884Y-36637580D02*
X148103884Y-37637580D01*
X148103884Y-37637580D02*
X148437217Y-37637580D01*
X148437217Y-37637580D02*
X148532455Y-37589961D01*
X148532455Y-37589961D02*
X148580074Y-37542342D01*
X148580074Y-37542342D02*
X148627693Y-37447104D01*
X148627693Y-37447104D02*
X148627693Y-37351866D01*
X148627693Y-37351866D02*
X148580074Y-37256628D01*
X148580074Y-37256628D02*
X148532455Y-37209009D01*
X148532455Y-37209009D02*
X148437217Y-37161390D01*
X148437217Y-37161390D02*
X148103884Y-37161390D01*
X149103884Y-37018533D02*
X149865789Y-37018533D01*
X158437217Y-37161390D02*
X158580074Y-37113771D01*
X158580074Y-37113771D02*
X158627693Y-37066152D01*
X158627693Y-37066152D02*
X158675312Y-36970914D01*
X158675312Y-36970914D02*
X158675312Y-36828057D01*
X158675312Y-36828057D02*
X158627693Y-36732819D01*
X158627693Y-36732819D02*
X158580074Y-36685200D01*
X158580074Y-36685200D02*
X158484836Y-36637580D01*
X158484836Y-36637580D02*
X158103884Y-36637580D01*
X158103884Y-36637580D02*
X158103884Y-37637580D01*
X158103884Y-37637580D02*
X158437217Y-37637580D01*
X158437217Y-37637580D02*
X158532455Y-37589961D01*
X158532455Y-37589961D02*
X158580074Y-37542342D01*
X158580074Y-37542342D02*
X158627693Y-37447104D01*
X158627693Y-37447104D02*
X158627693Y-37351866D01*
X158627693Y-37351866D02*
X158580074Y-37256628D01*
X158580074Y-37256628D02*
X158532455Y-37209009D01*
X158532455Y-37209009D02*
X158437217Y-37161390D01*
X158437217Y-37161390D02*
X158103884Y-37161390D01*
X159103884Y-37018533D02*
X159865789Y-37018533D01*
X159484836Y-36637580D02*
X159484836Y-37399485D01*
X157103884Y-47637580D02*
X157103884Y-48637580D01*
X157580074Y-47637580D02*
X157580074Y-48637580D01*
X157580074Y-48637580D02*
X158151502Y-47637580D01*
X158151502Y-47637580D02*
X158151502Y-48637580D01*
X158627693Y-48018533D02*
X159389598Y-48018533D01*
X159008645Y-47637580D02*
X159008645Y-48399485D01*
D11*
X152884104Y-71000714D02*
X152884104Y-71476904D01*
X153169819Y-70905476D02*
X152169819Y-71238809D01*
X152169819Y-71238809D02*
X153169819Y-71572142D01*
X153074580Y-72476904D02*
X153122200Y-72429285D01*
X153122200Y-72429285D02*
X153169819Y-72286428D01*
X153169819Y-72286428D02*
X153169819Y-72191190D01*
X153169819Y-72191190D02*
X153122200Y-72048333D01*
X153122200Y-72048333D02*
X153026961Y-71953095D01*
X153026961Y-71953095D02*
X152931723Y-71905476D01*
X152931723Y-71905476D02*
X152741247Y-71857857D01*
X152741247Y-71857857D02*
X152598390Y-71857857D01*
X152598390Y-71857857D02*
X152407914Y-71905476D01*
X152407914Y-71905476D02*
X152312676Y-71953095D01*
X152312676Y-71953095D02*
X152217438Y-72048333D01*
X152217438Y-72048333D02*
X152169819Y-72191190D01*
X152169819Y-72191190D02*
X152169819Y-72286428D01*
X152169819Y-72286428D02*
X152217438Y-72429285D01*
X152217438Y-72429285D02*
X152265057Y-72476904D01*
X153074580Y-73476904D02*
X153122200Y-73429285D01*
X153122200Y-73429285D02*
X153169819Y-73286428D01*
X153169819Y-73286428D02*
X153169819Y-73191190D01*
X153169819Y-73191190D02*
X153122200Y-73048333D01*
X153122200Y-73048333D02*
X153026961Y-72953095D01*
X153026961Y-72953095D02*
X152931723Y-72905476D01*
X152931723Y-72905476D02*
X152741247Y-72857857D01*
X152741247Y-72857857D02*
X152598390Y-72857857D01*
X152598390Y-72857857D02*
X152407914Y-72905476D01*
X152407914Y-72905476D02*
X152312676Y-72953095D01*
X152312676Y-72953095D02*
X152217438Y-73048333D01*
X152217438Y-73048333D02*
X152169819Y-73191190D01*
X152169819Y-73191190D02*
X152169819Y-73286428D01*
X152169819Y-73286428D02*
X152217438Y-73429285D01*
X152217438Y-73429285D02*
X152265057Y-73476904D01*
X153169819Y-74429285D02*
X153169819Y-73857857D01*
X153169819Y-74143571D02*
X152169819Y-74143571D01*
X152169819Y-74143571D02*
X152312676Y-74048333D01*
X152312676Y-74048333D02*
X152407914Y-73953095D01*
X152407914Y-73953095D02*
X152455533Y-73857857D01*
D14*
%TO.C,D1*%
X114960000Y-97360000D02*
X115980000Y-97360000D01*
X120400000Y-95890000D02*
X120400000Y-98830000D01*
X120520000Y-95890000D02*
X120520000Y-98830000D01*
X120640000Y-95890000D02*
X120640000Y-98830000D01*
X122440000Y-97360000D02*
X121420000Y-97360000D01*
X121420000Y-95890000D02*
X115980000Y-95890000D01*
X115980000Y-98830000D01*
X121420000Y-98830000D01*
X121420000Y-95890000D01*
D15*
%TO.C,U1*%
X132850000Y-78410000D02*
X137350000Y-78410000D01*
X132850000Y-101110000D02*
X132850000Y-78410000D01*
X132850000Y-101110000D02*
X150850000Y-101110000D01*
X137350000Y-77110000D02*
X137350000Y-78410000D01*
X137350000Y-77110000D02*
X146350000Y-77110000D01*
X146350000Y-77110000D02*
X146350000Y-78410000D01*
X146350000Y-78410000D02*
X150850000Y-78410000D01*
X150850000Y-101110000D02*
X150850000Y-78410000D01*
%TO.C,U4*%
D10*
X112850000Y-92910000D02*
X122850000Y-92910000D01*
X122850000Y-89410000D01*
X112850000Y-89410000D01*
X112850000Y-92910000D01*
%TO.C,U7*%
X142360000Y-40160000D02*
X138360000Y-40160000D01*
X138360000Y-41660000D01*
X142360000Y-41660000D01*
X142360000Y-40160000D01*
%TO.C,U2*%
X146800000Y-50510000D02*
X160300000Y-50510000D01*
X160300000Y-34510000D01*
X146800000Y-34510000D01*
X146800000Y-50510000D01*
D15*
%TO.C,ACC1*%
X130530000Y-59940000D02*
X130530000Y-72847500D01*
X130530000Y-75640000D02*
X150830000Y-75640000D01*
X150830000Y-59940000D02*
X130530000Y-59940000D01*
X150830000Y-72847500D02*
X150830000Y-59940000D01*
%TO.C,U6*%
D10*
X161810000Y-39820000D02*
X164810000Y-39820000D01*
X164810000Y-48820000D01*
X161810000Y-48820000D01*
X161810000Y-39820000D01*
%TD*%
M02*
